<svg width="24" height="26" viewBox="0 0 24 26" fill="none" xmlns="http://www.w3.org/2000/svg">
<path d="M5.26855 11.7499C5.26731 10.8605 5.44213 9.97951 5.78294 9.1579C6.12375 8.33628 6.62381 7.59025 7.25429 6.9628C7.88476 6.33535 8.6332 5.83889 9.45644 5.50204C10.2797 5.16519 11.1615 4.99461 12.0509 5.00013C15.7625 5.02772 18.7312 8.11275 18.7312 11.8347V12.4999C18.7312 15.8577 19.4337 17.8061 20.0524 18.871C20.1191 18.9848 20.1546 19.1142 20.1553 19.246C20.156 19.3779 20.1219 19.5076 20.0565 19.6221C19.991 19.7366 19.8966 19.8318 19.7826 19.8982C19.6686 19.9645 19.5392 19.9996 19.4073 19.9999H4.59173C4.45985 19.9996 4.33038 19.9645 4.2164 19.8981C4.10242 19.8318 4.00795 19.7366 3.94252 19.622C3.8771 19.5075 3.84303 19.3778 3.84376 19.2459C3.84449 19.114 3.87999 18.9846 3.94667 18.8709C4.56573 17.8059 5.26855 15.8575 5.26855 12.4999L5.26855 11.7499Z" stroke="#979797" stroke-width="2" stroke-linecap="round" stroke-linejoin="round"/>
<path d="M9 20V20.75C9 21.5456 9.31607 22.3087 9.87868 22.8713C10.4413 23.4339 11.2044 23.75 12 23.75C12.7956 23.75 13.5587 23.4339 14.1213 22.8713C14.6839 22.3087 15 21.5456 15 20.75V20" stroke="#979797" stroke-width="1.5" stroke-linecap="round" stroke-linejoin="round"/>
<circle cx="18" cy="6" r="5" fill="#FF4C51" stroke="white" stroke-width="2"/>
</svg>
