<svg width="60" height="60" viewBox="0 0 60 60" fill="none" xmlns="http://www.w3.org/2000/svg">
<circle cx="30" cy="30" r="30" fill="url(#paint0_linear_2_39000)"/>
<g clip-path="url(#clip0_2_39000)">
<path d="M26.3846 23.81C27.1321 21.6225 30.1546 21.5563 31.0409 23.6113L31.1159 23.8113L32.1246 26.7613C32.3558 27.4378 32.7294 28.0569 33.2202 28.5768C33.7109 29.0967 34.3075 29.5053 34.9696 29.775L35.2409 29.8762L38.1909 30.8838C40.3784 31.6313 40.4446 34.6537 38.3909 35.54L38.1909 35.615L35.2409 36.6238C34.5641 36.8548 33.9447 37.2283 33.4246 37.7191C32.9045 38.2099 32.4957 38.8065 32.2259 39.4688L32.1246 39.7388L31.1171 42.69C30.3696 44.8775 27.3471 44.9438 26.4621 42.89L26.3846 42.69L25.3771 39.74C25.1461 39.0632 24.7726 38.4439 24.2818 37.9238C23.791 37.4037 23.1944 36.9949 22.5321 36.725L22.2621 36.6238L19.3121 35.6162C17.1234 34.8687 17.0571 31.8462 19.1121 30.9612L19.3121 30.8838L22.2621 29.8762C22.9387 29.6451 23.5578 29.2715 24.0776 28.7807C24.5975 28.2899 25.0061 27.6934 25.2759 27.0312L25.3771 26.7613L26.3846 23.81ZM38.7509 19.5C38.9847 19.5 39.2139 19.5656 39.4123 19.6893C39.6107 19.8131 39.7705 19.99 39.8734 20.2L39.9334 20.3463L40.3709 21.6288L41.6546 22.0663C41.889 22.1459 42.0944 22.2933 42.2449 22.4898C42.3954 22.6863 42.4842 22.923 42.5 23.17C42.5158 23.417 42.4579 23.6632 42.3336 23.8772C42.2094 24.0913 42.0244 24.2637 41.8021 24.3725L41.6546 24.4325L40.3721 24.87L39.9346 26.1537C39.8549 26.388 39.7073 26.5934 39.5108 26.7437C39.3142 26.8941 39.0774 26.9827 38.8304 26.9984C38.5834 27.0141 38.3373 26.9561 38.1233 26.8317C37.9093 26.7074 37.7371 26.5223 37.6284 26.3L37.5684 26.1537L37.1309 24.8713L35.8471 24.4338C35.6128 24.3541 35.4073 24.2067 35.2568 24.0102C35.1063 23.8137 35.0176 23.577 35.0018 23.33C34.986 23.083 35.0439 22.8368 35.1681 22.6228C35.2923 22.4087 35.4773 22.2363 35.6996 22.1275L35.8471 22.0675L37.1296 21.63L37.5671 20.3463C37.6514 20.0993 37.8109 19.8849 38.0232 19.7331C38.2354 19.5814 38.4899 19.4998 38.7509 19.5Z" fill="white"/>
</g>
<defs>
<linearGradient id="paint0_linear_2_39000" x1="0" y1="30" x2="60" y2="30" gradientUnits="userSpaceOnUse">
<stop stop-color="#305AFF"/>
<stop offset="1" stop-color="#B5D2FF"/>
</linearGradient>
<clipPath id="clip0_2_39000">
<rect width="30" height="30" fill="white" transform="translate(15 17)"/>
</clipPath>
</defs>
</svg>
