<svg width="72" height="72" viewBox="0 0 72 72" fill="none" xmlns="http://www.w3.org/2000/svg">
<g filter="url(#filter0_d_2_38641)">
<circle cx="36" cy="33" r="30" fill="white"/>
</g>
<path d="M43.6614 22.5625C43.8724 22.5624 44.0813 22.6052 44.2763 22.6883C44.4712 22.7714 44.6483 22.8933 44.7975 23.0471C44.9466 23.2008 45.065 23.3832 45.1457 23.5841C45.2263 23.7849 45.2678 24.0002 45.2677 24.2176V24.5229C45.2677 25.2234 45.5378 25.8952 46.0186 26.3906C46.4993 26.8859 47.1513 27.1642 47.8312 27.1642C48.0422 27.1641 48.2511 27.2068 48.446 27.29C48.6409 27.3731 48.8181 27.495 48.9672 27.6487C49.1164 27.8024 49.2347 27.9849 49.3154 28.1858C49.3961 28.3866 49.4376 28.6019 49.4375 28.8193V33.9016C49.4376 34.1189 49.3961 34.3341 49.3155 34.5349C49.2348 34.7357 49.1166 34.9182 48.9675 35.0719C48.8184 35.2256 48.6413 35.3475 48.4465 35.4307C48.2516 35.5139 48.0428 35.5567 47.8319 35.5567C47.152 35.5567 46.5 35.835 46.0193 36.3303C45.5385 36.8257 45.2684 37.4975 45.2684 38.198V38.5033C45.2685 38.7207 45.227 38.9361 45.1463 39.1369C45.0655 39.3378 44.9472 39.5204 44.7979 39.6741C44.6487 39.8278 44.4715 39.9497 44.2765 40.0328C44.0815 40.1159 43.8725 40.1586 43.6614 40.1584H30.7614L28.4233 43.078C27.8534 43.7895 26.7323 43.3741 26.7323 42.4518V38.1987C26.7323 37.8518 26.666 37.5084 26.5371 37.1879C26.4083 36.8675 26.2195 36.5763 25.9814 36.331C25.7434 36.0858 25.4608 35.8912 25.1498 35.7585C24.8388 35.6257 24.5054 35.5574 24.1688 35.5574C23.9578 35.5575 23.7488 35.5147 23.5538 35.4315C23.3589 35.3484 23.1817 35.2264 23.0325 35.0726C22.8833 34.9188 22.765 34.7362 22.6844 34.5353C22.6037 34.3344 22.5623 34.1191 22.5625 33.9016V28.8193C22.5624 28.6019 22.6039 28.3867 22.6845 28.1859C22.7652 27.9851 22.8834 27.8027 23.0325 27.649C23.1816 27.4953 23.3587 27.3734 23.5535 27.2902C23.7484 27.207 23.9572 27.1642 24.1681 27.1642C24.848 27.1642 25.5 26.8859 25.9808 26.3906C26.4615 25.8952 26.7316 25.2234 26.7316 24.5229V24.2176C26.7316 24.0002 26.7731 23.785 26.8539 23.5841C26.9347 23.3833 27.0531 23.2009 27.2023 23.0473C27.3516 22.8936 27.5287 22.7718 27.7237 22.6887C27.9187 22.6057 28.1276 22.563 28.3386 22.5632L43.6614 22.5625Z" stroke="#305AFF" stroke-width="2" stroke-linecap="round" stroke-linejoin="round"/>
<path d="M30.8105 30.5437C30.8105 30.1331 30.9737 29.7394 31.264 29.449C31.5543 29.1587 31.9481 28.9956 32.3587 28.9956C32.7693 28.9956 33.163 29.1587 33.4534 29.449C33.7437 29.7394 33.9068 30.1331 33.9068 30.5437V32.31C33.9068 32.7206 33.7437 33.1143 33.4534 33.4047C33.163 33.695 32.7693 33.8581 32.3587 33.8581C31.9481 33.8581 31.5543 33.695 31.264 33.4047C30.9737 33.1143 30.8105 32.7206 30.8105 32.31V30.5437ZM38.093 30.5437C38.093 30.1331 38.2562 29.7394 38.5465 29.449C38.8368 29.1587 39.2306 28.9956 39.6412 28.9956C40.0518 28.9956 40.4455 29.1587 40.7359 29.449C41.0262 29.7394 41.1893 30.1331 41.1893 30.5437V32.31C41.1893 32.7206 41.0262 33.1143 40.7359 33.4047C40.4455 33.695 40.0518 33.8581 39.6412 33.8581C39.2306 33.8581 38.8368 33.695 38.5465 33.4047C38.2562 33.1143 38.093 32.7206 38.093 32.31V30.5437Z" stroke="#305AFF" stroke-width="1.5" stroke-linecap="round" stroke-linejoin="round"/>
<defs>
<filter id="filter0_d_2_38641" x="0" y="0" width="72" height="72" filterUnits="userSpaceOnUse" color-interpolation-filters="sRGB">
<feFlood flood-opacity="0" result="BackgroundImageFix"/>
<feColorMatrix in="SourceAlpha" type="matrix" values="0 0 0 0 0 0 0 0 0 0 0 0 0 0 0 0 0 0 127 0" result="hardAlpha"/>
<feOffset dy="3"/>
<feGaussianBlur stdDeviation="3"/>
<feComposite in2="hardAlpha" operator="out"/>
<feColorMatrix type="matrix" values="0 0 0 0 0 0 0 0 0 0 0 0 0 0 0 0 0 0 0.25 0"/>
<feBlend mode="normal" in2="BackgroundImageFix" result="effect1_dropShadow_2_38641"/>
<feBlend mode="normal" in="SourceGraphic" in2="effect1_dropShadow_2_38641" result="shape"/>
</filter>
</defs>
</svg>
