<svg width="24" height="24" viewBox="0 0 24 24" fill="none" xmlns="http://www.w3.org/2000/svg">
<g clip-path="url(#clip0_2_38812)">
<path d="M12.2999 1.49989H7.19986C5.91436 1.49989 5.03986 1.49989 4.36486 1.55689C3.70786 1.60939 3.37036 1.70689 3.13636 1.82689C2.5719 2.11451 2.11298 2.57343 1.82536 3.13789C1.70536 3.37189 1.60786 3.70789 1.55536 4.36639C1.49986 5.03989 1.49836 5.90989 1.49836 7.19989V15.2999C1.49836 16.5854 1.49986 17.4599 1.55536 18.1349C1.60936 18.7919 1.70686 19.1294 1.82536 19.3634C2.11336 19.9274 2.57236 20.3864 3.13636 20.6744C3.37036 20.7944 3.70786 20.8919 4.36486 20.9444C4.73986 20.9744 5.17486 20.9894 5.70736 20.9954C5.90236 21.5354 6.19936 22.0484 6.60136 22.4954C4.47136 22.4924 3.34636 22.4549 2.46136 22.0049C1.61545 21.5736 0.927647 20.8858 0.496359 20.0399C0.00585938 19.0769 0.00585938 17.8199 0.00585938 15.2999V7.19989C0.00585938 4.6799 0.00585938 3.41989 0.496359 2.45989C0.929317 1.6152 1.61667 0.927852 2.46136 0.494895C3.42436 0.00439458 4.68136 0.00439453 7.20136 0.00439453H12.3014C14.8214 0.00439453 16.0814 0.00439458 17.0414 0.494895C17.8861 0.927852 18.5734 1.6152 19.0064 2.45989C19.3664 3.16489 19.4624 4.03489 19.4879 5.44489C19.3081 5.44163 19.1283 5.44914 18.9494 5.46739C18.6634 5.11708 18.3279 4.81035 17.9534 4.55689L17.9399 4.37689C17.8859 3.71989 17.7899 3.38239 17.6699 3.14689C17.382 2.58299 16.9231 2.12462 16.3589 1.83739C16.1249 1.71739 15.7889 1.61989 15.1304 1.56739C14.4554 1.51189 13.5854 1.51039 12.2954 1.51039L12.2999 1.49989Z" fill="#305AFF"/>
<path d="M12.1051 4.5H3.75014C3.55123 4.5 3.36046 4.57902 3.21981 4.71967C3.07916 4.86032 3.00014 5.05109 3.00014 5.25C3.00014 5.44891 3.07916 5.63968 3.21981 5.78033C3.36046 5.92098 3.55123 6 3.75014 6H8.35514C9.17966 5.55052 10.121 5.36121 11.0551 5.457C11.3581 5.0865 11.7166 4.7625 12.1201 4.5H12.1051ZM3.75014 9H5.71514C5.53897 9.48074 5.44614 9.98802 5.44064 10.5H3.76064C3.56173 10.5 3.37096 10.421 3.23031 10.2803C3.08966 10.1397 3.01064 9.94891 3.01064 9.75C3.01064 9.55109 3.08966 9.36032 3.23031 9.21967C3.37096 9.07902 3.56173 9 3.76064 9H3.75014ZM3.88514 13.5H3.74414C3.54523 13.5 3.35446 13.579 3.21381 13.7197C3.07316 13.8603 2.99414 14.0511 2.99414 14.25C2.99414 14.4489 3.07316 14.6397 3.21381 14.7803C3.35446 14.921 3.54523 15 3.74414 15V14.643C3.74414 14.248 3.79114 13.867 3.88514 13.5Z" fill="#305AFF"/>
<path fill-rule="evenodd" clip-rule="evenodd" d="M15 18C16.65 18 18 16.6575 18 15C18 13.35 16.6575 12 15 12C13.35 12 12 13.3425 12 15C12 16.65 13.3425 18 15 18ZM15 16.5C15.3978 16.5 15.7794 16.342 16.0607 16.0607C16.342 15.7794 16.5 15.3978 16.5 15C16.5 14.6022 16.342 14.2206 16.0607 13.9393C15.7794 13.658 15.3978 13.5 15 13.5C14.6022 13.5 14.2206 13.658 13.9393 13.9393C13.658 14.2206 13.5 14.6022 13.5 15C13.5 15.3978 13.658 15.7794 13.9393 16.0607C14.2206 16.342 14.6022 16.5 15 16.5Z" fill="#305AFF"/>
<path fill-rule="evenodd" clip-rule="evenodd" d="M15.3001 6.00002H14.5891C13.4041 6.00002 12.4141 6.86252 12.2341 7.99502C12.1277 8.03611 12.0221 8.07962 11.9176 8.12552C11.4575 7.79742 10.8957 7.6434 10.3325 7.69093C9.76934 7.73845 9.24135 7.98443 8.84265 8.38502L8.33715 8.89052C7.93764 9.28984 7.69241 9.8177 7.64491 10.3806C7.59741 10.9434 7.75071 11.5049 8.07765 11.9655C8.03165 12.0705 7.98815 12.176 7.94715 12.282C7.39024 12.3762 6.88456 12.6642 6.51948 13.0951C6.1544 13.5261 5.95345 14.0722 5.95215 14.637V15.348C5.95215 16.5375 6.81765 17.523 7.94715 17.718C7.98715 17.822 8.02965 17.925 8.07465 18.027C7.74506 18.4892 7.58997 19.0533 7.63693 19.619C7.68389 20.1847 7.92986 20.7155 8.33115 21.117L8.82615 21.612C9.66915 22.455 10.9861 22.542 11.9311 21.864C12.0291 21.909 12.1281 21.9505 12.2281 21.9885C12.3207 22.5502 12.6098 23.0607 13.0439 23.4289C13.478 23.7971 14.0289 23.999 14.5981 23.9985H15.2851C16.4851 23.9985 17.4751 23.1225 17.6701 21.9735C17.7681 21.9345 17.8651 21.894 17.9611 21.852C18.9031 22.533 20.2261 22.449 21.0811 21.6015L21.5626 21.12C22.4101 20.2725 22.4941 18.945 21.8131 18C21.8561 17.903 21.8966 17.806 21.9346 17.709C22.5003 17.6165 23.0146 17.3257 23.3856 16.8888C23.7566 16.4518 23.9601 15.8972 23.9596 15.324V14.637C23.9596 13.4415 23.0882 12.447 21.9496 12.267C21.9108 12.1661 21.8698 12.0661 21.8266 11.967C22.5016 11.0295 22.4176 9.71702 21.5716 8.86202L21.0796 8.37002C20.6781 7.96873 20.1474 7.72276 19.5816 7.6758C19.0159 7.62884 18.4518 7.78393 17.9896 8.11352C17.8876 8.06823 17.7846 8.02522 17.6806 7.98452C17.5861 7.42507 17.2959 6.91739 16.8618 6.552C16.4278 6.18662 15.878 5.98727 15.3106 5.98952L15.3001 6.00002ZM13.6951 8.40002C13.6951 7.90652 14.0941 7.50752 14.5876 7.50752H15.2986C15.7936 7.50752 16.1956 7.90952 16.1956 8.40452C16.1956 8.82752 16.4941 9.18602 16.8946 9.32402C17.1306 9.40502 17.3596 9.50052 17.5816 9.61052C17.9626 9.79802 18.4306 9.75602 18.7306 9.45602C18.8993 9.28794 19.1278 9.19356 19.3659 9.19356C19.604 9.19356 19.8325 9.28794 20.0011 9.45602L20.4946 9.94952C20.6639 10.1191 20.759 10.3489 20.759 10.5885C20.759 10.8281 20.6639 11.0579 20.4946 11.2275C20.1931 11.529 20.1496 11.997 20.3356 12.3795C20.4406 12.5965 20.5326 12.82 20.6116 13.05C20.7511 13.455 21.1126 13.758 21.5401 13.758C22.0396 13.758 22.4446 14.163 22.4446 14.6625V15.3495C22.4446 15.5906 22.3489 15.8218 22.1784 15.9923C22.0079 16.1628 21.7767 16.2585 21.5356 16.2585C21.1066 16.2585 20.7436 16.5615 20.6026 16.965C20.5246 17.191 20.4337 17.4105 20.3296 17.6235C20.1421 18.009 20.1841 18.4815 20.4886 18.7845C20.5732 18.8688 20.6403 18.969 20.6861 19.0793C20.7319 19.1896 20.7555 19.3078 20.7555 19.4273C20.7555 19.5467 20.7319 19.6649 20.6861 19.7752C20.6403 19.8855 20.5732 19.9857 20.4886 20.07L20.0071 20.5515C19.9228 20.6361 19.8227 20.7032 19.7124 20.749C19.6021 20.7948 19.4838 20.8184 19.3644 20.8184C19.245 20.8184 19.1267 20.7948 19.0164 20.749C18.9061 20.7032 18.806 20.6361 18.7216 20.5515C18.4186 20.2485 17.9461 20.205 17.5606 20.3925C17.3476 20.4965 17.1281 20.5875 16.9021 20.6655C16.4971 20.8065 16.1941 21.1695 16.1941 21.5985C16.1941 21.8396 16.0984 22.0708 15.9279 22.2413C15.7574 22.4118 15.5262 22.5075 15.2851 22.5075H14.5981C14.3583 22.5075 14.1282 22.4122 13.9586 22.2426C13.7889 22.073 13.6936 21.8429 13.6936 21.603C13.6936 21.1755 13.3906 20.8125 12.9856 20.6745C12.7568 20.5961 12.5329 20.504 12.3151 20.3985C11.9326 20.2125 11.4646 20.256 11.1631 20.556C10.9936 20.7253 10.7638 20.8204 10.5241 20.8204C10.2845 20.8204 10.0547 20.7253 9.88515 20.556L9.39165 20.0625C9.22357 19.8938 9.12919 19.6654 9.12919 19.4273C9.12919 19.1891 9.22357 18.9607 9.39165 18.792C9.69165 18.492 9.73365 18.024 9.54615 17.643C9.43652 17.4202 9.34084 17.1907 9.25965 16.956C9.12165 16.5555 8.76315 16.257 8.34015 16.257C8.10249 16.2562 7.8748 16.1615 7.70675 15.9934C7.5387 15.8254 7.44394 15.5977 7.44315 15.36V14.649C7.44315 14.1555 7.84215 13.7565 8.33565 13.7565C8.75865 13.7565 9.11565 13.458 9.25215 13.0575C9.33385 12.8187 9.43054 12.5852 9.54165 12.3585C9.72765 11.9805 9.68565 11.517 9.38715 11.2185C9.21989 11.0509 9.12595 10.8238 9.12595 10.587C9.12595 10.3502 9.21989 10.1231 9.38715 9.95552L9.89265 9.45002C10.0603 9.28276 10.2874 9.18883 10.5241 9.18883C10.7609 9.18883 10.988 9.28276 11.1556 9.45002C11.4541 9.74852 11.9176 9.79052 12.2956 9.60452C12.5206 9.49452 12.7536 9.39802 12.9946 9.31502C13.3951 9.18002 13.6936 8.82152 13.6936 8.39852L13.6951 8.40002Z" fill="#305AFF"/>
</g>
<defs>
<clipPath id="clip0_2_38812">
<rect width="24" height="24" fill="white"/>
</clipPath>
</defs>
</svg>
